<svg width="176" height="30" viewBox="0 0 176 30" fill="none" xmlns="http://www.w3.org/2000/svg">
<path fill-rule="evenodd" clip-rule="evenodd" d="M47.8796 9.88815C46.7334 8.2983 45.1733 7.53517 43.1674 7.53517C41.0661 7.53517 39.4423 8.39369 38.3916 10.0471H38.2006C38.3279 8.52088 38.3916 7.40798 38.3916 6.70845V1.81171C38.3916 1.49374 38.1369 1.23936 37.8185 1.23936H34.3799C34.0615 1.23936 33.8068 1.49374 33.8068 1.81171V24.165C33.8068 24.483 34.0615 24.7373 34.3799 24.7373H36.927C37.1499 24.7373 37.3727 24.6102 37.4683 24.3876L38.0732 22.8931H38.3916C39.5378 24.3558 41.0661 25.0553 43.0719 25.0553C45.0778 25.0553 46.6697 24.324 47.8478 22.7659C49.0258 21.2397 49.5989 19.0775 49.5989 16.2793C49.5989 13.5766 49.0258 11.4462 47.8796 9.88815ZM39.1876 12.3047C39.7288 11.6052 40.5885 11.2554 41.7029 11.2554C42.658 11.2554 43.454 11.6688 44.0271 12.4955C44.5684 13.3222 44.8549 14.5623 44.8549 16.2158C44.8549 17.8374 44.5684 19.1411 44.0271 19.9996C43.4858 20.8899 42.6899 21.3351 41.7665 21.3351C40.5885 21.3351 39.7288 20.9217 39.1876 20.1586C38.6463 19.3955 38.3916 18.0918 38.3916 16.2793V15.7706C38.3916 14.1807 38.6781 13.0043 39.1876 12.3047Z" fill="#175DDC"/>
<path d="M53.738 24.7691H57.1766C57.495 24.7691 57.7816 24.4512 57.7497 24.165V8.45728C57.7497 8.13931 57.495 7.88494 57.1766 7.88494H53.738C53.4196 7.88494 53.1649 8.13931 53.1649 8.45728V24.1968C53.1649 24.5148 53.4196 24.7691 53.738 24.7691Z" fill="#175DDC"/>
<path d="M72.1728 20.9853C71.2177 21.2397 70.4217 21.3669 69.7531 21.3669C69.18 21.3669 68.6705 21.2079 68.3521 20.8581C68.0019 20.5719 67.8109 20.0632 67.8109 19.4272V11.3508H72.141C72.3639 11.3508 72.5231 11.1918 72.5231 10.9692V8.10751C72.5231 8.01212 72.4276 7.91673 72.332 7.91673H67.779V4.70524C67.779 4.48266 67.6198 4.32367 67.397 4.32367H65.1046C64.9454 4.32367 64.818 4.41906 64.7543 4.57805L63.5126 7.88494L60.9973 9.37939C60.9973 9.39529 60.9894 9.41119 60.9814 9.42709C60.9734 9.44299 60.9655 9.45889 60.9655 9.47479V10.9692C60.9655 11.1918 61.1247 11.3508 61.3476 11.3508H63.1624V19.459C63.1624 21.3033 63.6081 22.7023 64.4359 23.6245C65.2638 24.5784 66.601 25.0235 68.4477 25.0235C69.9759 25.0235 71.345 24.8009 72.4275 24.3558C72.5549 24.2922 72.6504 24.165 72.6504 24.006V21.3669C72.6504 21.1125 72.4276 20.9217 72.1728 20.9853Z" fill="#175DDC"/>
<path d="M90.1937 24.0696C90.3848 24.483 90.735 24.7691 91.1807 24.7691H91.3081C91.7857 24.7691 92.1678 24.483 92.2951 24.0378L96.3068 9.25221C96.4342 8.77525 96.084 8.33009 95.6064 8.33009C95.288 8.33009 95.0014 8.55267 94.9059 8.87064L92.518 17.742C91.7857 20.6037 91.4036 22.3844 91.3081 23.0203H91.2126C91.0534 22.2254 90.6077 20.6991 89.8754 18.3144L86.8825 8.96603C86.7551 8.58447 86.4049 8.33009 85.991 8.33009C85.5452 8.33009 85.195 8.58447 85.0676 8.96603L81.8519 18.3779C81.5654 19.1729 81.1196 20.7309 80.5465 23.0839H80.451C80.2599 21.9392 79.8461 20.2222 79.2411 17.8692L76.7577 8.87064C76.6621 8.55267 76.3756 8.33009 76.0572 8.33009H75.9617C75.4523 8.33009 75.102 8.80705 75.2294 9.25221L79.464 24.0378C79.5913 24.483 79.9734 24.7691 80.4191 24.7691C80.8649 24.7691 81.247 24.5148 81.3743 24.1014L84.8448 13.831L85.5134 11.6688L85.8318 10.5241H85.9273C86.015 10.8527 86.0977 11.1645 86.1758 11.4587C86.4376 12.4459 86.6471 13.2358 86.8188 13.7992L90.1937 24.0696Z" fill="#175DDC"/>
<path fill-rule="evenodd" clip-rule="evenodd" d="M109.52 24.2604C109.552 24.5466 109.807 24.7691 110.093 24.7691C110.412 24.7691 110.698 24.4512 110.73 24.2604V13.9264C110.73 11.9867 110.284 10.4923 109.393 9.57018C108.469 8.61627 107.132 8.13931 105.317 8.13931C103.725 8.13931 102.165 8.48908 100.573 9.12502C100.223 9.25221 100.064 9.66557 100.223 10.0153C100.382 10.3651 100.796 10.5241 101.146 10.3651C102.547 9.69736 103.885 9.37939 105.222 9.37939C106.623 9.37939 107.61 9.76096 108.278 10.5559C108.947 11.3508 109.265 12.4955 109.265 14.0854V15.1664L106.145 15.2618C103.566 15.2618 101.656 15.8024 100.287 16.6927C98.9495 17.6148 98.249 19.2047 98.3764 20.8581C98.4401 22.0982 98.8858 23.0839 99.6818 23.8152C100.573 24.642 101.815 25.0553 103.439 25.0553C104.617 25.0553 105.668 24.8645 106.527 24.4194C107.419 23.9742 108.246 23.2111 109.074 22.1618H109.233L109.52 24.2604ZM107.642 22.1936C106.655 23.1793 105.285 23.688 103.502 23.688C102.356 23.688 101.465 23.4019 100.764 22.9249C100.159 22.3526 99.841 21.5259 99.841 20.5083C99.841 19.2365 100.35 18.2508 101.337 17.6466C102.356 17.0425 103.98 16.6609 106.304 16.5655L109.17 16.4383V18.0282C109.17 19.777 108.66 21.2079 107.642 22.1936Z" fill="#175DDC"/>
<path d="M123.848 8.10751C123.306 8.04392 122.829 8.01212 122.351 8.01212C121.269 8.01212 120.345 8.2665 119.613 8.77525C118.849 9.25221 118.117 10.1107 117.448 11.319H117.352L117.225 8.96603C117.225 8.61627 116.939 8.36189 116.588 8.36189C116.238 8.36189 115.952 8.64806 115.952 8.99783V23.9424C115.952 24.3558 116.27 24.6738 116.684 24.6738C117.098 24.6738 117.416 24.3558 117.416 23.9424V15.6116C117.416 13.831 117.862 12.3047 118.753 11.1282C119.645 9.95174 120.791 9.3476 122.192 9.3476C122.67 9.3476 123.147 9.41119 123.625 9.47479C124.007 9.53838 124.389 9.3158 124.453 8.93424C124.516 8.55267 124.262 8.17111 123.848 8.10751Z" fill="#175DDC"/>
<path fill-rule="evenodd" clip-rule="evenodd" d="M136.647 8.64806C135.787 8.2347 134.737 8.01212 133.559 8.01212C131.266 8.01212 129.547 8.77525 128.337 10.1425C127.127 11.6688 126.554 13.831 126.554 16.6609C126.554 19.3637 127.191 21.3987 128.369 22.8295C129.611 24.2604 131.298 24.9599 133.59 24.9599C135.915 24.9599 137.729 24.0378 138.971 22.1618H139.099L139.417 24.2286C139.449 24.5148 139.672 24.7056 139.926 24.7056C140.213 24.7056 140.436 24.483 140.436 24.1968V1.97069C140.436 1.55733 140.117 1.23936 139.703 1.23936C139.29 1.23936 138.971 1.55733 138.971 1.97069V7.1536C138.971 8.36189 139.003 9.57018 139.067 10.8739H138.971C138.303 9.82455 137.538 9.06143 136.647 8.64806ZM129.483 11.2872C130.406 10.0153 131.744 9.37939 133.559 9.37939C135.469 9.37939 136.838 9.91994 137.666 11.0646C138.557 12.1457 138.971 13.9582 138.971 16.5019V16.7563C138.971 19.2365 138.557 21.0171 137.666 22.0982C136.806 23.1793 135.469 23.7198 133.59 23.7198C129.961 23.7198 128.146 21.3987 128.146 16.7563C128.146 14.3397 128.592 12.5273 129.483 11.2872Z" fill="#175DDC"/>
<path fill-rule="evenodd" clip-rule="evenodd" d="M147.026 22.8295C148.396 24.324 150.242 25.0553 152.63 25.0553C153.585 25.0553 154.445 24.9917 155.241 24.7691C155.91 24.642 156.642 24.4512 157.406 24.1332C157.661 24.0378 157.82 23.7834 157.82 23.5291C157.82 23.0839 157.374 22.7659 156.96 22.9249C156.228 23.1793 155.623 23.3383 155.114 23.4337C154.413 23.5609 153.553 23.6245 152.63 23.6245C150.688 23.6245 149.223 23.0839 148.173 21.8756C147.122 20.6673 146.613 18.9503 146.581 16.6927H158.425V15.4844C158.425 13.1632 157.884 11.319 156.737 9.98354C155.655 8.64806 154.095 7.98033 152.184 7.98033C149.987 7.98033 148.268 8.77525 146.963 10.3651C145.657 11.9232 145.021 14.0218 145.021 16.6609C145.021 19.3001 145.689 21.3669 147.026 22.8295ZM148.364 10.9057C149.319 9.85635 150.592 9.3476 152.184 9.3476C153.649 9.3476 154.795 9.88815 155.623 10.9374C156.451 11.9867 156.865 13.513 156.865 15.389H146.676C146.867 13.4494 147.409 11.9232 148.364 10.9057Z" fill="#175DDC"/>
<path d="M174.504 24.0378C174.504 24.4512 174.822 24.7691 175.236 24.7691C175.618 24.7691 175.968 24.4194 176 23.9742V13.99C176 9.98354 174.121 7.98033 170.396 7.98033C167.658 7.98033 165.78 8.83885 164.697 10.5559H164.602L164.411 8.90244C164.347 8.58447 164.092 8.33009 163.742 8.33009C163.36 8.33009 163.073 8.61627 163.073 8.99783V23.9742C163.073 24.3876 163.392 24.7056 163.806 24.7056C164.22 24.7056 164.538 24.3876 164.538 23.9742V15.6434C164.538 13.4494 165.047 11.8278 165.939 10.8421C166.83 9.82455 168.263 9.3476 170.237 9.3476C171.702 9.3476 172.752 9.76096 173.485 10.4923C174.153 11.2236 174.504 12.4319 174.504 14.0854V24.0378Z" fill="#175DDC"/>
<path d="M52.7828 3.56054C52.7828 2.12968 53.9927 0.984985 55.4892 0.984985C56.9538 0.984985 58.1955 2.12968 58.1955 3.59234V3.81492C58.1955 5.21399 56.9538 6.39048 55.4892 6.39048C54.0246 6.39048 52.7828 5.21399 52.7828 3.81492V3.56054Z" fill="#175DDC"/>
<path fill-rule="evenodd" clip-rule="evenodd" d="M22.5378 16.9868V3.46413C22.5378 3.15893 22.4263 2.89482 22.2033 2.67179C21.9803 2.44876 21.7161 2.33724 21.4109 2.33724H1.12689C0.821692 2.33724 0.557577 2.44876 0.334546 2.67179C0.111515 2.89482 0 3.15893 0 3.46413V16.9868C0 17.9963 0.196619 18.997 0.589857 19.9889C0.983095 20.9808 1.47024 21.8612 2.05129 22.6301C2.63235 23.399 3.32492 24.1473 4.129 24.8751C4.93308 25.6029 5.67554 26.2074 6.35637 26.6887C7.0372 27.1699 7.74738 27.6248 8.4869 28.0533C9.22642 28.4817 9.75172 28.7722 10.0628 28.9248C10.3739 29.0774 10.6233 29.1948 10.8111 29.277C10.952 29.3474 11.1046 29.3826 11.2689 29.3826C11.4333 29.3826 11.5859 29.3474 11.7267 29.277C11.9145 29.1948 12.164 29.0774 12.475 28.9248C12.7861 28.7722 13.3114 28.4817 14.0509 28.0533C14.7905 27.6248 15.5006 27.1699 16.1815 26.6887C16.8623 26.2074 17.6047 25.6029 18.4088 24.8751C19.2129 24.1473 19.9055 23.399 20.4865 22.6301C21.0676 21.8612 21.5547 20.9808 21.948 19.9889C22.3412 18.997 22.5378 17.9963 22.5378 16.9868ZM19.1572 5.71792V16.9868C19.1572 19.0528 17.7779 21.1657 15.0194 23.3256C13.9159 24.1942 12.6658 24.9983 11.2689 25.7379V5.71792H19.1572Z" fill="#175DDC"/>
</svg>
